<svg width="817.3425048828125px" height="234.2px" xmlns="http://www.w3.org/2000/svg" viewBox="-158.67125244140624 -42.099999999999994 817.3425048828125 234.2" style="background: rgba(0, 0, 0, 0);" preserveAspectRatio="xMidYMid"><defs><filter id="editing-extrude-glow"><feFlood flood-color="#333333" result="flood-1"></feFlood><feMorphology operator="erode" radius="1" in="SourceAlpha" result="erode"></feMorphology><feComposite operator="in" in="flood-1" in2="erode" result="comp1"></feComposite><feConvolveMatrix order="3,3" divisor="1" in="comp1" result="convolve" kernelMatrix="0 0 0 1 1 1 0 0 0"></feConvolveMatrix><feOffset dx="-3" dy="0" in="convolve" result="extrude"></feOffset><feComposite operator="in" in="flood-1" in2="extrude" result="comp-extrude"></feComposite><feFlood flood-color="rgba(0%,0%,0%,0.97)" result="flood-2"></feFlood><feComposite operator="in" in="flood-2" in2="SourceAlpha" result="comp2"></feComposite><feMorphology operator="dilate" radius="1" in="comp2" result="dilate"></feMorphology><feOffset dx="-4.5" dy="0" in="dilate" result="offset"></feOffset><feGaussianBlur in="offset" stdDeviation="5.8" result="blur"></feGaussianBlur><feComponentTransfer in="blur" result="shadow"><feFuncA type="linear" slope="0.8" intercept="-0.2"></feFuncA></feComponentTransfer><feMerge><feMergeNode in="shadow"></feMergeNode><feMergeNode in="comp-extrude"></feMergeNode><feMergeNode in="SourceGraphic"></feMergeNode></feMerge></filter></defs><g filter="url(#editing-extrude-glow)"><g transform="translate(-40.681254863739014, 134.7849998474121)"><path d="M104.83-87.82L104.83-87.82L104.83-87.82Q107.48-87.82 107.48-85.93L107.48-85.93L107.48-85.93Q107.48-78.25 86.31-41.96L86.31-41.96L86.31-41.96Q87.19-38.56 89.08-34.02L89.08-34.02L126.63-62.62L126.63-62.62Q148.18-79.00 155.74-83.66L155.74-83.66L155.74-83.66Q172.62-93.74 188.87-93.74L188.87-93.74L188.87-93.74Q193.54-93.74 197.44-92.23L197.44-92.23L197.44-92.23Q199.84-91.35 199.84-88.96L199.84-88.96L199.84-88.96Q199.84-86.56 198.58-86.56L198.58-86.56L198.58-86.56Q197.82-86.56 197.00-87.57L197.00-87.57L197.00-87.57Q196.18-88.58 192.21-88.58L192.21-88.58L192.21-88.58Q188.24-88.58 179.30-86.56L179.30-86.56L179.30-86.56Q165.19-83.41 147.29-72.45L147.29-72.45L147.29-72.45Q136.08-65.52 117.31-51.16L117.31-51.16L117.31-51.16Q98.53-36.79 90.22-31.37L90.22-31.37L90.22-31.37Q96.64-17.89 106.72-6.30L106.72-6.30L106.72-6.30Q122.22 11.72 134.57 11.72L134.57 11.72L134.57 11.72Q140.62 11.72 140.62 7.06L140.62 7.06L140.62 7.06Q140.62 6.17 140.43 5.29L140.43 5.29L140.43 5.29Q140.24 4.41 140.87 3.15L140.87 3.15L140.87 3.15Q141.50 1.89 142.38 1.89L142.38 1.89L142.38 1.89Q144.02 1.89 144.52 5.80L144.52 5.80L144.52 5.80Q144.65 6.43 144.65 7.06L144.65 7.06L144.65 7.06Q144.65 11.09 140.55 13.67L140.55 13.67L140.55 13.67Q136.46 16.25 130.85 16.25L130.85 16.25L130.85 16.25Q125.24 16.25 121.46 14.49L121.46 14.49L121.46 14.49Q111.51 9.58 101.37-2.77L101.37-2.77L101.37-2.77Q91.22-15.12 85.81-28.73L85.81-28.73L85.81-28.73Q78.88-24.70 74.34-24.32L74.34-24.32L74.34-24.32Q65.90-13.36 53.55-3.02L53.55-3.02L53.55-3.02Q46.87 2.65 39.06 6.11L39.06 6.11L39.06 6.11Q31.25 9.58 24.07 9.58L24.07 9.58L24.07 9.58Q13.86 9.58 8.32 4.47L8.32 4.47L8.32 4.47Q2.77-0.63 2.77-11.09L2.77-11.09L2.77-11.09Q2.77-16.25 4.79-20.66L4.79-20.66L4.79-20.66Q11.21-34.90 24.19-40.32L24.19-40.32L24.19-40.32Q31.37-43.47 38.49-43.47L38.49-43.47L38.49-43.47Q45.61-43.47 48.01-38.81L48.01-38.81L48.01-38.81Q48.89-37.17 48.89-35.34L48.89-35.34L48.89-35.34Q48.89-33.52 48.38-33.01L48.38-33.01L48.38-33.01Q47.88-32.51 47.00-33.89L47.00-33.89L47.00-33.89Q43.97-39.44 40.57-40.07L40.57-40.07L40.57-40.07Q38.30-40.32 37.30-40.32L37.30-40.32L37.30-40.32Q27.47-40.32 18.90-32.13L18.90-32.13L18.90-32.13Q7.81-21.42 7.81-8.95L7.81-8.95L7.81-8.95Q7.81 4.66 23.18 6.43L23.18 6.43L23.18 6.43Q23.69 6.43 24.19 6.43L24.19 6.43L24.19 6.43Q29.74 6.43 38.43 1.51L38.43 1.51L38.43 1.51Q52.54-6.55 68.54-26.21L68.54-26.21L68.54-26.21Q65.65-28.85 65.65-34.02L65.65-34.02L65.65-34.02Q65.65-39.19 69.49-43.79L69.49-43.79L69.49-43.79Q73.33-48.38 80.01-48.38L80.01-48.38L80.01-48.38Q81.90-48.38 83.54-48.01L83.54-48.01L83.54-48.01Q89.84-58.59 95.76-70.88L95.76-70.88L95.76-70.88Q101.68-83.16 101.68-85.05L101.68-85.05L101.68-85.05Q101.68-85.30 100.93-85.30L100.93-85.30L100.93-85.30Q100.17-85.30 92.17-81.33L92.17-81.33L92.17-81.33Q84.17-77.36 80.77-75.10L80.77-75.10L80.77-75.10Q77.36-72.83 72.45-67.98L72.45-67.98L72.45-67.98Q67.54-63.13 67.54-60.10L67.54-60.10L67.54-60.10Q67.54-58.72 69.49-57.33L69.49-57.33L69.49-57.33Q71.44-55.94 76.61-55.94L76.61-55.94L76.61-55.94Q77.24-55.69 77.24-55.25L77.24-55.25L77.24-55.25Q77.24-54.81 73.77-54.24L73.77-54.24L73.77-54.24Q70.31-53.68 68.29-53.68L68.29-53.68L68.29-53.68Q63.76-53.68 63.76-57.46L63.76-57.46L63.76-57.46Q63.76-61.87 69.17-68.04L69.17-68.04L69.17-68.04Q74.59-74.21 81.02-77.74L81.02-77.74L81.02-77.74Q99.79-87.82 104.83-87.82ZM84.80-31.37L84.80-31.37L84.80-31.37Q83.79-33.89 83.16-36.41L83.16-36.41L83.16-36.41Q80.64-32.76 78.12-29.23L78.12-29.23L78.12-29.23Q79.38-29.23 80.39-29.42L80.39-29.42L80.39-29.42Q81.40-29.61 84.80-31.37ZM80.01-42.21L80.01-42.21L80.01-42.21Q78.50-42.84 76.67-42.84L76.67-42.84L76.67-42.84Q74.84-42.84 73.02-40.57L73.02-40.57L73.02-40.57Q71.19-38.30 71.19-35.72L71.19-35.72L71.19-35.72Q71.19-33.14 72.58-31.37L72.58-31.37L72.58-31.37Q78.75-40.19 80.01-42.21ZM124.36 1.64L124.36 1.64L124.36 1.64Q122.98 1.64 121.84 1.26L121.84 1.26L121.84 1.26Q113.78-1.01 113.78-7.81L113.78-7.81L113.78-7.81Q113.78-16.63 124.87-28.22L124.87-28.22L124.87-28.22Q135.95-39.82 144.77-39.82L144.77-39.82L144.77-39.82Q147.67-39.82 149.50-38.24L149.50-38.24L149.50-38.24Q151.33-36.67 151.33-34.40L151.33-34.40L151.33-34.40Q151.33-27.34 140.68-20.92L140.68-20.92L140.68-20.92Q130.03-14.49 123.35-14.49L123.35-14.49L123.35-14.49Q122.35-14.49 121.59-14.74L121.59-14.74L121.59-14.74Q119.70-11.34 119.70-7.56L119.70-7.56L119.70-7.56Q119.70-1.01 125.94-1.01L125.94-1.01L125.94-1.01Q132.17-1.01 142.13-9.45L142.13-9.45L142.13-9.45Q149.81-15.62 155.23-22.55L155.23-22.55L155.23-22.55Q156.37-24.07 157.19-24.07L157.19-24.07L157.19-24.07Q158.00-24.07 158.00-23.31L158.00-23.31L158.00-23.31Q158.00-22.55 157.00-21.17L157.00-21.17L157.00-21.17Q150.19-12.22 140.62-5.29L140.62-5.29L140.62-5.29Q131.04 1.64 124.36 1.64ZM148.18-34.65L148.18-34.65L148.18-34.65Q148.18-36.16 144.96-36.16L144.96-36.16L144.96-36.16Q141.75-36.16 135.83-31.25L135.83-31.25L135.83-31.25Q127.89-24.70 123.48-17.51L123.48-17.51L123.48-17.51Q124.24-17.26 125.12-17.26L125.12-17.26L125.12-17.26Q129.91-17.26 137.91-22.36L137.91-22.36L137.91-22.36Q145.91-27.47 147.92-33.52L147.92-33.52L147.92-33.52Q148.18-34.15 148.18-34.65ZM170.60-39.82L170.60-39.82L170.60-39.82Q174.01-39.82 174.01-37.17L174.01-37.17L174.01-37.17Q174.01-36.41 173.63-35.66L173.63-35.66L173.63-35.66Q162.29-19.91 160.02-11.84L160.02-11.84L160.02-11.84Q189.38-41.20 195.68-41.20L195.68-41.20L195.68-41.20Q196.31-41.33 196.81-41.33L196.81-41.33L196.81-41.33Q200.34-41.33 200.34-38.18L200.34-38.18L200.34-38.18Q200.34-37.55 200.09-36.92L200.09-36.92L200.09-36.92Q199.84-36.29 195.05-30.11L195.05-30.11L195.05-30.11Q189.50-23.56 185.66-17.51L185.66-17.51L185.66-17.51Q181.82-11.47 181.82-7.43L181.82-7.43L181.82-7.43Q181.82-3.40 183.58-3.40L183.58-3.40L183.58-3.40Q189.13-3.40 202.86-18.65L202.86-18.65L202.86-18.65Q203.11-18.90 203.74-19.78L203.74-19.78L203.74-19.78Q205.63-22.05 206.01-22.05L206.01-22.05L206.01-22.05Q206.39-22.05 206.39-20.79L206.39-20.79L206.39-20.79Q206.39-19.53 204.62-17.51L204.62-17.51L204.62-17.51Q189 0.25 182.45 0.25L182.45 0.25L182.45 0.25Q176.27 0.25 176.27-6.55L176.27-6.55L176.27-6.55Q176.27-13.36 181.31-22.18L181.31-22.18L189.38-35.28L189.38-35.28Q180.81-28.98 174.13-21.48L174.13-21.48L174.13-21.48Q167.45-13.99 161.97-6.93L161.97-6.93L161.97-6.93Q156.49 0.13 155.61 0.13L155.61 0.13L155.61 0.13Q153.72 0.13 152.65-1.45L152.65-1.45L152.65-1.45Q151.58-3.02 151.58-5.36L151.58-5.36L151.58-5.36Q151.58-7.69 153.22-11.59L153.22-11.59L153.22-11.59Q154.85-15.50 157.37-21.04L157.37-21.04L149.81-13.10L149.81-13.10Q147.04-10.33 146.35-10.33L146.35-10.33L146.35-10.33Q145.66-10.33 145.66-11.15L145.66-11.15L145.66-11.15Q145.66-11.97 146.66-12.98L146.66-12.98L146.66-12.98Q151.33-17.64 154.73-21.92L154.73-21.92L154.73-21.92Q158.00-26.21 168.21-38.30L168.21-38.30L168.21-38.30Q169.34-39.82 170.60-39.82ZM194.04 14.62L194.04 14.62L194.04 14.62Q200.09 22.18 204.50 22.18L204.50 22.18L204.50 22.18Q211.68 22.18 220.00 10.71L220.00 10.71L220.00 10.71Q226.04 2.27 231.84-10.58L231.84-10.58L236.63-22.18L218.11-7.69L218.11-7.69Q209.54-1.01 204.37-1.01L204.37-1.01L204.37-1.01Q201.60-1.01 199.96-2.90L199.96-2.90L199.96-2.90Q198.32-4.79 198.32-7.18L198.32-7.18L198.32-7.18Q198.32-12.60 207.65-25.01L207.65-25.01L207.65-25.01Q216.97-37.42 221.26-37.42L221.26-37.42L221.26-37.42Q225.54-37.42 225.54-34.52L225.54-34.52L225.54-34.52Q225.54-33.39 214.39-21.48L214.39-21.48L214.39-21.48Q203.24-9.58 203.24-5.42L203.24-5.42L203.24-5.42Q203.24-3.78 205.38-3.78L205.38-3.78L205.38-3.78Q209.41-3.78 221.57-13.23L221.57-13.23L221.57-13.23Q233.73-22.68 239.90-28.85L239.90-28.85L239.90-28.85Q241.29-30.49 243.81-33.77L243.81-33.77L243.81-33.77Q246.20-36.54 249.10-36.54L249.10-36.54L249.10-36.54Q252-36.54 252-33.77L252-33.77L252-33.77Q252-33.26 246.33-24.82L246.33-24.82L246.33-24.82Q240.66-16.38 240.41-15.88L240.41-15.88L240.41-15.88Q236.50-8.32 228.44 6.17L228.44 6.17L228.44 6.17Q216.22 25.83 203.99 25.83L203.99 25.83L203.99 25.83Q199.96 25.83 196.94 22.36L196.94 22.36L196.94 22.36Q193.91 18.90 194.04 14.62ZM280.60-26.71L280.60-26.71L280.60-26.71Q280.60-22.30 272.16-11.97L272.16-11.97L272.16-11.97Q262.21 0.25 255.15 0.25L255.15 0.25L253.13 0.25L253.13 0.25Q249.86 0.25 247.97-3.15L247.97-3.15L247.97-3.15Q246.46-5.54 246.46-8.44L246.46-8.44L246.46-8.44Q246.46-16.00 257.48-29.67L257.48-29.67L257.48-29.67Q268.51-43.34 275.31-43.34L275.31-43.34L275.31-43.34Q281.74-43.34 281.74-36.54L281.74-36.54L281.74-36.54Q281.74-34.78 281.11-32.00L281.11-32.00L281.11-32.00Q281.23-31.63 283.50-31.63L283.50-31.63L283.50-31.63Q285.77-31.63 290.43-34.02L290.43-34.02L290.43-34.02Q290.30-31.88 280.48-27.85L280.48-27.85L280.48-27.85Q280.60-27.34 280.60-26.71ZM272.41-33.26L272.41-33.26L272.41-33.26Q268.13-33.26 260.25-23.18L260.25-23.18L260.25-23.18Q252.38-13.10 252.38-8.32L252.38-8.32L252.38-8.32Q252.38-3.53 255.40-3.53L255.40-3.53L255.40-3.53Q260.82-3.53 269.14-13.36L269.14-13.36L269.14-13.36Q277.45-23.18 277.45-27.47L277.45-27.47L277.45-27.47Q275.44-28.60 272.41-33.26ZM303.41-39.82L303.41-39.82L303.41-39.82Q306.81-39.82 306.81-37.17L306.81-37.17L306.81-37.17Q306.81-36.41 306.43-35.66L306.43-35.66L306.43-35.66Q295.09-19.91 292.82-11.84L292.82-11.84L292.82-11.84Q322.18-41.20 328.48-41.20L328.48-41.20L328.48-41.20Q329.11-41.33 329.62-41.33L329.62-41.33L329.62-41.33Q333.14-41.33 333.14-38.18L333.14-38.18L333.14-38.18Q333.14-37.55 332.89-36.92L332.89-36.92L332.89-36.92Q332.64-36.29 327.85-30.11L327.85-30.11L327.85-30.11Q322.31-23.56 318.47-17.51L318.47-17.51L318.47-17.51Q314.62-11.47 314.62-7.43L314.62-7.43L314.62-7.43Q314.62-3.40 316.39-3.40L316.39-3.40L316.39-3.40Q321.93-3.40 335.66-18.65L335.66-18.65L335.66-18.65Q335.92-18.90 336.55-19.78L336.55-19.78L336.55-19.78Q338.44-22.05 338.81-22.05L338.81-22.05L338.81-22.05Q339.19-22.05 339.19-20.79L339.19-20.79L339.19-20.79Q339.19-19.53 337.43-17.51L337.43-17.51L337.43-17.51Q321.80 0.25 315.25 0.25L315.25 0.25L315.25 0.25Q309.08 0.25 309.08-6.55L309.08-6.55L309.08-6.55Q309.08-13.36 314.12-22.18L314.12-22.18L322.18-35.28L322.18-35.28Q313.61-28.98 306.94-21.48L306.94-21.48L306.94-21.48Q300.26-13.99 294.78-6.93L294.78-6.93L294.78-6.93Q289.30 0.13 288.41 0.13L288.41 0.13L288.41 0.13Q286.52 0.13 285.45-1.45L285.45-1.45L285.45-1.45Q284.38-3.02 284.38-5.36L284.38-5.36L284.38-5.36Q284.38-7.69 286.02-11.59L286.02-11.59L286.02-11.59Q287.66-15.50 290.18-21.04L290.18-21.04L282.62-13.10L282.62-13.10Q279.85-10.33 279.15-10.33L279.15-10.33L279.15-10.33Q278.46-10.33 278.46-11.15L278.46-11.15L278.46-11.15Q278.46-11.97 279.47-12.98L279.47-12.98L279.47-12.98Q284.13-17.64 287.53-21.92L287.53-21.92L287.53-21.92Q290.81-26.21 301.01-38.30L301.01-38.30L301.01-38.30Q302.15-39.82 303.41-39.82ZM455.87-23.81L455.87-23.81L455.87-23.81Q455.87-19.28 453.85-15.25L453.85-15.25L453.85-15.25Q449.57-6.17 437.47-0.13L437.47-0.13L437.47-0.13Q425.38 5.92 412.27 5.92L412.27 5.92L412.27 5.92Q392.36 5.92 385.18-7.69L385.18-7.69L385.18-7.69Q372.20 3.15 366.66 3.15L366.66 3.15L366.66 3.15Q365.65 3.15 364.90 2.77L364.90 2.77L364.90 2.77Q361.12 0.76 361.12-5.92L361.12-5.92L361.12-5.92Q361.12-12.60 366.66-22.30L366.66-22.30L366.66-22.30Q372.20-32.00 376.36-33.77L376.36-33.77L376.36-33.77Q378.25-34.40 379.26-34.40L379.26-34.40L379.26-34.40Q382.91-34.40 384.80-28.35L384.80-28.35L388.58-16.25L388.58-16.25Q392.24-20.16 398.54-28.73L398.54-28.73L409.75-43.85L409.75-43.85Q430.42-70.69 436.84-73.21L436.84-73.21L436.84-73.21Q439.11-74.09 441.50-74.09L441.50-74.09L441.50-74.09Q443.90-74.09 445.47-73.08L445.47-73.08L445.47-73.08Q447.05-72.07 447.05-70.56L447.05-70.56L447.05-70.56Q447.05-68.29 443.39-67.91L443.39-67.91L443.39-67.91Q439.61-65.77 428.97-55.38L428.97-55.38L428.97-55.38Q418.32-44.98 416.30-42.21L416.30-42.21L416.30-42.21Q402.19-22.55 390.22-11.97L390.22-11.97L390.22-11.97Q397.91 3.28 413.28 3.28L413.28 3.28L413.28 3.28Q422.60 3.28 431.80-2.58L431.80-2.58L431.80-2.58Q441-8.44 445.54-17.01L445.54-17.01L445.54-17.01Q447.55-20.66 447.55-25.20L447.55-25.20L447.55-25.20Q447.55-29.74 443.96-33.83L443.96-33.83L443.96-33.83Q440.37-37.93 434.95-39.82L434.95-39.82L434.95-39.82Q432.43-40.19 426.89-40.89L426.89-40.89L426.89-40.89Q421.34-41.58 421.34-43.22L421.34-43.22L421.34-43.22Q421.34-43.85 421.85-44.35L421.85-44.35L421.85-44.35Q423.36-46.12 425.75-46.12L425.75-46.12L425.75-46.12Q427.14-46.12 428.46-45.61L428.46-45.61L428.46-45.61Q429.79-45.11 430.54-44.86L430.54-44.86L430.54-44.86Q431.30-44.60 432.31-44.23L432.31-44.23L432.31-44.23Q435.08-43.97 437.09-43.97L437.09-43.97L437.09-43.97Q445.41-43.97 452.21-46.62L452.21-46.62L452.21-46.62Q460.91-50.02 463.30-56.83L463.30-56.83L463.30-56.83Q464.81-61.24 464.81-64.76L464.81-64.76L464.81-64.76Q464.81-73.46 456.37-77.74L456.37-77.74L456.37-77.74Q449.06-81.52 436.34-81.52L436.34-81.52L436.34-81.52Q416.30-81.52 400.43-73.96L400.43-73.96L400.43-73.96Q392.36-70.18 385.12-62.75L385.12-62.75L385.12-62.75Q377.87-55.31 377.87-50.02L377.87-50.02L377.87-50.02Q377.87-46.37 379.76-43.97L379.76-43.97L379.76-43.97Q380.52-42.97 382.41-41.45L382.41-41.45L382.41-41.45Q383.04-41.08 381.65-41.08L381.65-41.08L381.65-41.08Q373.84-42.84 373.84-51.53L373.84-51.53L373.84-51.53Q373.84-60.23 382.66-67.91L382.66-67.91L382.66-67.91Q389.21-73.58 397.40-77.11L397.40-77.11L397.40-77.11Q414.41-84.42 436.09-84.42L436.09-84.42L436.09-84.42Q451.58-84.42 460.78-79.88L460.78-79.88L460.78-79.88Q471.49-74.84 471.49-64.64L471.49-64.64L471.49-64.64Q471.49-60.61 469.85-56.45L469.85-56.45L469.85-56.45Q467.21-48.89 456.12-44.98L456.12-44.98L456.12-44.98Q447.80-42.08 438.23-41.96L438.23-41.96L438.23-41.96Q445.66-41.58 450.76-36.48L450.76-36.48L450.76-36.48Q455.87-31.37 455.87-23.81ZM375.35-28.48L375.35-28.48L375.35-28.48Q375.23-28.48 374.72-28.22L374.72-28.22L374.72-28.22Q365.40-14.74 365.40-6.55L365.40-6.55L365.40-6.55Q365.40-3.15 367.04-0.38L367.04-0.38L367.04-0.38Q367.42 0.25 368.30 0.25L368.30 0.25L368.30 0.25Q372.33 0.25 383.80-11.21L383.80-11.21L383.42-11.72L383.42-11.72Q378.38-28.48 375.35-28.48ZM466.96-6.30L466.96-6.30L466.96-6.30Q466.96-2.52 471.11-2.52L471.11-2.52L471.11-2.52Q475.27-2.52 481.82-6.93L481.82-6.93L481.82-6.93Q488.38-11.34 494.55-18.90L494.55-18.90L494.55-18.90Q496.06-20.92 496.94-20.92L496.94-20.92L496.94-20.92Q497.83-20.92 497.83-20.16L497.83-20.16L497.83-20.16Q497.83-19.40 492.66-13.61L492.66-13.61L492.66-13.61Q480.06 0.25 471.62 0.25L471.62 0.25L471.62 0.25Q467.46 0.25 464.56-1.70L464.56-1.70L464.56-1.70Q461.66-3.65 461.66-7.75L461.66-7.75L461.66-7.75Q461.66-11.84 463.81-17.26L463.81-17.26L463.81-17.26Q467.46-25.83 475.52-38.81L475.52-38.81L475.52-38.81Q490.27-62.75 496.44-62.75L496.44-62.75L496.44-62.75Q497.70-62.75 499.02-61.80L499.02-61.80L499.02-61.80Q500.35-60.86 500.47-59.72L500.47-59.72L500.47-59.72Q497.57-55.82 489.32-44.73L489.32-44.73L489.32-44.73Q481.07-33.64 477.92-28.79L477.92-28.79L477.92-28.79Q474.77-23.94 473.19-21.55L473.19-21.55L473.19-21.55Q471.62-19.15 470.86-17.83L470.86-17.83L470.86-17.83Q470.11-16.51 469.10-14.36L469.10-14.36L469.10-14.36Q466.96-10.08 466.96-6.30ZM527.94 0.76L527.94 0.76L527.94 0.76Q527.31 0.88 525.23 0.88L525.23 0.88L525.23 0.88Q523.15 0.88 521.07-0.76L521.07-0.76L521.07-0.76Q518.99-2.39 518.99-4.98L518.99-4.98L518.99-4.98Q518.99-7.56 519.94-10.71L519.94-10.71L519.94-10.71Q520.88-13.86 521.26-15.50L521.26-15.50L521.26-15.50Q506.77 1.39 498.58 1.39L498.58 1.39L498.58 1.39Q493.42 1.39 492.91-5.04L492.91-5.04L492.91-5.04Q492.91-5.54 492.91-5.92L492.91-5.92L492.91-5.92Q492.91-11.34 499.46-20.54L499.46-20.54L499.46-20.54Q495.81-17.26 492.03-12.98L492.03-12.98L492.03-12.98Q491.53-12.47 490.77-12.47L490.77-12.47L490.77-12.47Q490.27-12.47 490.27-13.10L490.27-13.10L490.27-13.10Q490.27-13.73 491.40-15.25L491.40-15.25L508.79-35.66L508.79-35.66Q512.06-39.44 515.47-39.44L515.47-39.44L515.47-39.44Q518.87-39.44 518.87-37.17L518.87-37.17L518.87-37.17Q518.87-36.29 518.11-35.53L518.11-35.53L518.11-35.53Q513.07-30.87 505.45-20.03L505.45-20.03L505.45-20.03Q497.83-9.20 497.83-4.03L497.83-4.03L497.83-4.03Q497.83-1.76 499.34-1.76L499.34-1.76L499.34-1.76Q504.63-1.76 514.71-12.22L514.71-12.22L514.71-12.22Q518.24-15.75 527.81-27.78L527.81-27.78L527.81-27.78Q537.39-39.82 540.41-39.82L540.41-39.82L540.41-39.82Q544.95-39.82 544.95-36.29L544.95-36.29L544.95-36.29Q544.95-35.03 539.66-28.98L539.66-28.98L539.66-28.98Q532.48-20.29 528.70-14.80L528.70-14.80L528.70-14.80Q524.92-9.32 524.92-5.92L524.92-5.92L524.92-5.92Q524.92-2.52 526.81-2.52L526.81-2.52L526.81-2.52Q527.69-2.52 528.82-3.02L528.82-3.02L528.82-3.02Q537.52-6.80 549.61-20.66L549.61-20.66L549.61-20.66Q550.37-21.55 551.12-21.55L551.12-21.55L551.12-21.55Q551.88-21.55 551.88-20.73L551.88-20.73L551.88-20.73Q551.88-19.91 551.00-18.90L551.00-18.90L551.00-18.90Q545.58-12.60 538.27-6.24L538.27-6.24L538.27-6.24Q530.96 0.13 527.94 0.76ZM552.64 1.64L552.64 1.64L552.64 1.64Q551.25 1.64 550.12 1.26L550.12 1.26L550.12 1.26Q542.05-1.01 542.05-7.81L542.05-7.81L542.05-7.81Q542.05-16.63 553.14-28.22L553.14-28.22L553.14-28.22Q564.23-39.82 573.05-39.82L573.05-39.82L573.05-39.82Q575.95-39.82 577.77-38.24L577.77-38.24L577.77-38.24Q579.60-36.67 579.60-34.40L579.60-34.40L579.60-34.40Q579.60-27.34 568.95-20.92L568.95-20.92L568.95-20.92Q558.31-14.49 551.63-14.49L551.63-14.49L551.63-14.49Q550.62-14.49 549.86-14.74L549.86-14.74L549.86-14.74Q547.97-11.34 547.97-7.56L547.97-7.56L547.97-7.56Q547.97-1.01 554.21-1.01L554.21-1.01L554.21-1.01Q560.45-1.01 570.40-9.45L570.40-9.45L570.40-9.45Q578.09-15.62 583.51-22.55L583.51-22.55L583.51-22.55Q584.64-24.07 585.46-24.07L585.46-24.07L585.46-24.07Q586.28-24.07 586.28-23.31L586.28-23.31L586.28-23.31Q586.28-22.55 585.27-21.17L585.27-21.17L585.27-21.17Q578.47-12.22 568.89-5.29L568.89-5.29L568.89-5.29Q559.31 1.64 552.64 1.64ZM576.45-34.65L576.45-34.65L576.45-34.65Q576.45-36.16 573.24-36.16L573.24-36.16L573.24-36.16Q570.02-36.16 564.10-31.25L564.10-31.25L564.10-31.25Q556.16-24.70 551.75-17.51L551.75-17.51L551.75-17.51Q552.51-17.26 553.39-17.26L553.39-17.26L553.39-17.26Q558.18-17.26 566.18-22.36L566.18-22.36L566.18-22.36Q574.18-27.47 576.20-33.52L576.20-33.52L576.20-33.52Q576.45-34.15 576.45-34.65Z" fill="#db4343"></path></g></g><style>text {
  font-size: 64px;
  font-family: Arial Black;
  dominant-baseline: central;
  text-anchor: middle;
}</style></svg>